<svg width="24" height="24" viewBox="0 0 24 24" fill="none" xmlns="http://www.w3.org/2000/svg">
<path d="M2.5 2.50002C2.5 2.23481 2.60536 1.98045 2.79289 1.79292C2.98043 1.60538 3.23478 1.50002 3.5 1.50002H16.365C17.7167 1.49599 19.0176 2.01443 19.996 2.94702C20.4693 3.39793 20.8465 3.9399 21.105 4.54035C21.3635 5.1408 21.4978 5.78731 21.5 6.44102V21.5C21.5 21.7652 21.3946 22.0196 21.2071 22.2071C21.0196 22.3947 20.7652 22.5 20.5 22.5H7.635C6.28368 22.5038 4.98316 21.9854 4.005 21.053C3.53155 20.6022 3.15417 20.0602 2.89554 19.4598C2.6369 18.8593 2.50236 18.2128 2.5 17.559V2.50002Z" fill="#3370FF"/>
<path d="M7 8.7C7 8.51435 7.07375 8.3363 7.20503 8.20503C7.3363 8.07375 7.51435 8 7.7 8H16.3C16.4857 8 16.6637 8.07375 16.795 8.20503C16.9263 8.3363 17 8.51435 17 8.7C17 8.88565 16.9263 9.0637 16.795 9.19497C16.6637 9.32625 16.4857 9.4 16.3 9.4H7.7C7.51435 9.4 7.3363 9.32625 7.20503 9.19497C7.07375 9.0637 7 8.88565 7 8.7ZM7 12.1C7 11.9143 7.07375 11.7363 7.20503 11.605C7.3363 11.4737 7.51435 11.4 7.7 11.4H16.3C16.4857 11.4 16.6637 11.4737 16.795 11.605C16.9263 11.7363 17 11.9143 17 12.1C17 12.2857 16.9263 12.4637 16.795 12.595C16.6637 12.7263 16.4857 12.8 16.3 12.8H7.7C7.51435 12.8 7.3363 12.7263 7.20503 12.595C7.07375 12.4637 7 12.2857 7 12.1ZM7 15.5C7 15.3143 7.07375 15.1363 7.20503 15.005C7.3363 14.8737 7.51435 14.8 7.7 14.8H12.3C12.3919 14.8 12.483 14.8181 12.5679 14.8533C12.6528 14.8885 12.73 14.94 12.795 15.005C12.86 15.07 12.9115 15.1472 12.9467 15.2321C12.9819 15.317 13 15.4081 13 15.5C13 15.5919 12.9819 15.683 12.9467 15.7679C12.9115 15.8528 12.86 15.93 12.795 15.995C12.73 16.06 12.6528 16.1115 12.5679 16.1467C12.483 16.1819 12.3919 16.2 12.3 16.2H7.7C7.51435 16.2 7.3363 16.1263 7.20503 15.995C7.07375 15.8637 7 15.6857 7 15.5Z" fill="white"/>
</svg>
