<?xml version="1.0" standalone="no"?><!DOCTYPE svg PUBLIC "-//W3C//DTD SVG 1.1//EN" "http://www.w3.org/Graphics/SVG/1.1/DTD/svg11.dtd"><svg t="1659168573621" class="icon" viewBox="0 0 1024 1024" version="1.1" xmlns="http://www.w3.org/2000/svg" p-id="2541" xmlns:xlink="http://www.w3.org/1999/xlink" width="200" height="200"><defs><style type="text/css">@font-face { font-family: feedback-iconfont; src: url("//at.alicdn.com/t/font_1031158_u69w8yhxdu.woff2?t=1630033759944") format("woff2"), url("//at.alicdn.com/t/font_1031158_u69w8yhxdu.woff?t=1630033759944") format("woff"), url("//at.alicdn.com/t/font_1031158_u69w8yhxdu.ttf?t=1630033759944") format("truetype"); }
</style></defs><path d="M213.333333 426.666667c-119.466667 0-213.333333-93.866667-213.333333-213.333333s93.866667-213.333333 213.333333-213.333333 213.333333 93.866667 213.333333 213.333333c0 25.6-17.066667 42.666667-42.666667 42.666667S341.333333 238.933333 341.333333 213.333333c0-72.533333-55.466667-128-128-128S85.333333 140.8 85.333333 213.333333s55.466667 128 128 128c25.6 0 42.666667 17.066667 42.666667 42.666667S238.933333 426.666667 213.333333 426.666667z" p-id="2542"></path><path d="M810.666667 426.666667c-25.6 0-42.666667-17.066667-42.666667-42.666667s17.066667-42.666667 42.666667-42.666667c72.533333 0 128-55.466667 128-128s-55.466667-128-128-128-128 55.466667-128 128c0 25.6-17.066667 42.666667-42.666667 42.666667s-42.666667-17.066667-42.666667-42.666667c0-119.466667 93.866667-213.333333 213.333333-213.333333s213.333333 93.866667 213.333333 213.333333S930.133333 426.666667 810.666667 426.666667z" p-id="2543"></path><path d="M213.333333 1024c-119.466667 0-213.333333-93.866667-213.333333-213.333333s93.866667-213.333333 213.333333-213.333333c25.6 0 42.666667 17.066667 42.666667 42.666667s-17.066667 42.666667-42.666667 42.666667c-72.533333 0-128 55.466667-128 128s55.466667 128 128 128 128-55.466667 128-128c0-25.6 17.066667-42.666667 42.666667-42.666667s42.666667 17.066667 42.666667 42.666667C426.666667 930.133333 332.8 1024 213.333333 1024z" p-id="2544"></path><path d="M810.666667 1024c-119.466667 0-213.333333-93.866667-213.333333-213.333333 0-25.6 17.066667-42.666667 42.666667-42.666667s42.666667 17.066667 42.666667 42.666667c0 72.533333 55.466667 128 128 128s128-55.466667 128-128-55.466667-128-128-128c-25.6 0-42.666667-17.066667-42.666667-42.666667s17.066667-42.666667 42.666667-42.666667c119.466667 0 213.333333 93.866667 213.333333 213.333333S930.133333 1024 810.666667 1024z" p-id="2545"></path><path d="M384 853.333333c-25.6 0-42.666667-17.066667-42.666667-42.666667L341.333333 213.333333c0-25.6 17.066667-42.666667 42.666667-42.666667s42.666667 17.066667 42.666667 42.666667l0 597.333333C426.666667 836.266667 409.6 853.333333 384 853.333333z" p-id="2546"></path><path d="M640 853.333333c-25.6 0-42.666667-17.066667-42.666667-42.666667L597.333333 213.333333c0-25.6 17.066667-42.666667 42.666667-42.666667s42.666667 17.066667 42.666667 42.666667l0 597.333333C682.666667 836.266667 665.6 853.333333 640 853.333333z" p-id="2547"></path><path d="M810.666667 426.666667 213.333333 426.666667c-25.6 0-42.666667-17.066667-42.666667-42.666667s17.066667-42.666667 42.666667-42.666667l597.333333 0c25.6 0 42.666667 17.066667 42.666667 42.666667S836.266667 426.666667 810.666667 426.666667z" p-id="2548"></path><path d="M810.666667 682.666667 213.333333 682.666667c-25.6 0-42.666667-17.066667-42.666667-42.666667s17.066667-42.666667 42.666667-42.666667l597.333333 0c25.6 0 42.666667 17.066667 42.666667 42.666667S836.266667 682.666667 810.666667 682.666667z" p-id="2549"></path></svg>